<?xml version="1.0" standalone="no"?>
<!DOCTYPE svg PUBLIC "-//W3C//DTD SVG 20010904//EN"
 "http://www.w3.org/TR/2001/REC-SVG-20010904/DTD/svg10.dtd">
<svg version="1.0" xmlns="http://www.w3.org/2000/svg"
 width="840.000000pt" height="592.000000pt" viewBox="0 0 840.000000 592.000000"
 preserveAspectRatio="xMidYMid meet">

<g transform="translate(0.000000,592.000000) scale(0.100000,-0.100000)"
fill="#000000" stroke="none">
<path d="M2555 4655 c-59 -30 -60 -31 -65 -377 l-5 -317 -100 -89 c-181 -161
-331 -370 -423 -589 l-47 -113 -103 0 -104 0 -34 -34 -34 -34 0 -456 c0 -388
2 -461 15 -486 26 -49 47 -55 204 -55 l144 0 54 -89 c143 -236 365 -461 594
-602 l59 -37 0 -241 c0 -207 2 -245 16 -265 34 -48 60 -51 411 -51 422 0 423
0 423 168 0 45 3 82 8 82 4 0 61 -7 127 -15 190 -23 528 -17 681 11 l31 6 5
-92 c4 -86 6 -92 36 -123 l32 -32 335 -3 c374 -3 404 0 435 51 18 29 20 52 20
268 l0 237 67 43 c347 226 603 546 718 902 18 53 35 100 38 103 3 3 25 -5 49
-17 217 -111 472 -24 580 199 31 63 33 73 33 177 0 103 -2 114 -32 177 -40 86
-104 155 -149 164 -104 19 -166 -98 -94 -179 91 -104 92 -218 1 -308 -36 -36
-57 -49 -96 -57 -145 -31 -265 76 -265 236 0 82 -32 246 -70 362 -83 255 -214
456 -428 661 -330 316 -756 511 -1287 591 -59 8 -182 13 -360 12 -232 0 -288
-3 -400 -22 -114 -20 -320 -68 -365 -86 -10 -4 -119 55 -293 159 -152 91 -289
168 -304 170 -15 3 -42 -2 -58 -10z m617 -545 c16 0 74 13 129 30 463 137 973
131 1429 -20 624 -205 1044 -624 1157 -1153 24 -112 24 -331 -1 -447 -76 -363
-306 -683 -656 -910 -58 -37 -121 -82 -140 -98 l-35 -31 -1 -178 c0 -98 -1
-197 -2 -220 l-2 -43 -210 0 -210 0 0 93 c0 72 -4 99 -19 123 -32 53 -61 58
-192 34 -185 -34 -413 -46 -592 -32 -83 6 -192 19 -242 28 -143 27 -171 25
-206 -14 -28 -31 -29 -36 -29 -132 l0 -100 -215 0 -215 0 0 213 c0 149 -4 219
-13 237 -7 13 -55 51 -107 83 -139 86 -243 171 -355 289 -107 112 -170 198
-240 331 -66 123 -62 121 -221 125 l-134 4 2 316 3 317 97 5 c121 6 127 11
174 151 90 264 237 464 519 705 l60 51 3 251 3 250 216 -129 c144 -86 225
-129 245 -129z"/>
<path d="M3990 3506 l0 -94 -37 -7 c-233 -43 -380 -320 -269 -510 52 -87 152
-160 336 -245 216 -99 280 -157 265 -236 -15 -81 -99 -129 -225 -128 -88 0
-137 15 -205 61 -27 18 -53 33 -57 33 -13 0 -119 -160 -113 -170 3 -6 32 -27
63 -49 59 -40 140 -73 205 -85 l37 -7 0 -89 0 -90 105 0 105 0 0 94 0 94 46
16 c198 67 311 296 231 469 -48 104 -122 161 -362 278 -237 116 -279 161 -239
258 15 35 30 52 64 71 40 22 56 25 150 25 112 0 127 -5 218 -68 24 -16 47 -25
51 -21 24 28 111 155 111 162 0 22 -156 112 -228 131 l-42 12 0 94 0 95 -105
0 -105 0 0 -94z"/>
<path d="M2665 3381 c-112 -28 -186 -133 -169 -242 10 -58 60 -128 113 -156
78 -41 180 -26 245 35 121 113 65 317 -99 361 -44 12 -47 12 -90 2z"/>
</g>
</svg>
